<?xml version="1.0" encoding="UTF-8"?>
<!-- Generator: Adobe Illustrator 26.2.1, SVG Export Plug-In . SVG Version: 6.00 Build 0)  -->
<svg xmlns="http://www.w3.org/2000/svg" xmlns:xlink="http://www.w3.org/1999/xlink" version="1.1" id="Capa_1" x="0px" y="0px" viewBox="0 0 513 513" style="enable-background:new 0 0 513 513;" xml:space="preserve" width="512" height="512">
<g>
	<line style="fill:none;stroke:#000000;stroke-miterlimit:10;" x1="41.386" y1="353.599" x2="460.283" y2="353.599"/>
	<g>
		<g>
			<g>
				<path style="fill:#FF4568;stroke:#000000;stroke-miterlimit:10;" d="M336.785,8.055L269.829,0.58      c-7.021-0.784-13.348,4.279-14.131,11.309l-4.043,36.305l8.548,0.954l3.033-27.23c0.783-7.03,7.109-12.093,14.131-11.309      l49.859,5.566c7.021,0.784,12.078,7.118,11.296,14.148l-3.033,27.23l8.549,0.954l4.043-36.305      C348.864,15.173,343.807,8.839,336.785,8.055z"/>
				<path style="fill:#FF4568;stroke:#000000;stroke-miterlimit:10;" d="M433.92,100.829l-0.752,2.192      C301.713,26.74,143.802,66.058,143.802,66.058l0.161-3.159c0.155-10.186,7.586-18.733,17.604-20.349      c43.258-6.975,159.763-18.799,262.004,32.882C432.859,80.125,437.26,90.953,433.92,100.829z"/>
			</g>
			<g>
				<path style="fill:#FF4568;stroke:#000000;stroke-miterlimit:10;" d="M144.216,66.155c0,0,157.84-39.508,289.374,37.114      l-95.617,301.04c-2.069,6.515-8.69,10.439-15.39,9.122l-172.134-33.834c-6.377-1.254-10.944-6.898-10.844-13.405L144.216,66.155      z"/>
				<g>
					<line style="fill:#FF4568;stroke:#000000;stroke-miterlimit:10;" x1="196.206" y1="105.373" x2="175.422" y2="369.656"/>
					<line style="fill:#FF4568;stroke:#000000;stroke-miterlimit:10;" x1="373.83" y1="125.632" x2="295.447" y2="384.571"/>
					<line style="fill:#FF4568;stroke:#000000;stroke-miterlimit:10;" x1="281.651" y1="105.373" x2="235.464" y2="376.236"/>
				</g>
			</g>
		</g>
		<g>
			<g>
				<g>
					<path style="stroke:#000000;stroke-miterlimit:10;" d="M247.637,451.018c-29.064-19.198-62.715-28.817-96.687-34.87       c-17.837-3.183-35.361-4.492-53.459-4.925c-12.937-0.302-31.377,1.924-41.498-7.685c-3.853-3.656-5.02-9.136-1.65-13.588       c12.213-16.126,31.045-24.536,48.258-34.175c12.243-6.859,24.577-13.164,37.444-18.06l-0.322,20.809       c-8.893,3.807-17.545,8.3-26.086,13.044c-11.257,6.265-23.933,11.986-34.164,20.266c5.664,0.413,11.77,0.01,15.412,0.121       c8.551,0.262,17.122,0.272,25.663,0.755c16.519,0.947,32.967,3.928,49.134,7.383c31.911,6.829,62.533,17.627,89.877,35.696       C269.98,442.668,257.939,457.827,247.637,451.018z"/>
					<g>
						<g>
							<path style="fill:#00C692;stroke:#000000;stroke-miterlimit:10;" d="M256.744,427.411         c12.078,2.008,19.661,4.908,24.034,8.443c12.098,9.817-0.297,24.679-9.819,40.131c-9.676,15.744-26.023,37.664-41.189,36.467         c-5.095-0.393-10.08-3.423-14.626-10.213c-18.027-26.915,30.127-49.043,30.127-49.043l-2.759-1.03         c-0.409,0.706-2.586,2.555-4.877,3.268c-2.786,0.868-5.998-0.36-7.382-2.215c-3.325-4.454,2.839-13.935,6.138-19.01         c3.056-4.701,10.224-15.726,15.656-14.09C253.125,420.446,255.349,421.634,256.744,427.411z"/>
							<path style="fill:none;stroke:#000000;stroke-miterlimit:10;" d="M256.749,427.401c0,0-1.069,4.602-6.131,12.714"/>
							<path style="fill:none;stroke:#000000;stroke-miterlimit:10;" d="M245.157,447.938c0,0-0.757,2.28-3.145,4.615"/>
							<g>
								<path style="fill:#FFFFFF;" d="M217.436,480.8c-2.864,7.621-2.016,15.079,3.615,21.16c0.716,0.845,1.561,1.569,2.31,2.439          c0,0-0.058,0.081-0.058,0.081c-0.868-0.715-1.781-1.381-2.613-2.137c-0.396-0.421-1.386-1.415-1.763-1.821          c-0.873-1.147-1.67-2.206-2.316-3.529C214.036,492.058,214.533,485.283,217.436,480.8L217.436,480.8z"/>
							</g>
							<path style="fill:#FFFFFF;stroke:#000000;stroke-miterlimit:10;" d="M280.722,436.048c0.433,0.146,0.863,0.357,1.289,0.642         c3.012,2.019,3.977,6.917,3.733,10.282c-0.765,10.571-9.458,20.369-14.785,29.013c-9.676,15.743-26.905,37.441-41.187,36.467         c-13.106-0.893,5.479-27.836,9.243-33.247c9.025-12.977,19.009-25.863,30.134-37.004         C272.023,439.324,276.11,434.494,280.722,436.048z"/>
						</g>
						<g>
							<line style="fill:none;stroke:#000000;stroke-miterlimit:10;" x1="246.928" y1="505.005" x2="231.937" y2="489.8"/>
							<line style="fill:none;stroke:#000000;stroke-miterlimit:10;" x1="258.869" y1="493.402" x2="242.158" y2="475.506"/>
							<line style="fill:none;stroke:#000000;stroke-miterlimit:10;" x1="269.669" y1="477.778" x2="252.469" y2="461.464"/>
							<line style="fill:none;stroke:#000000;stroke-miterlimit:10;" x1="280.26" y1="461.873" x2="264.99" y2="446.841"/>
						</g>
					</g>
				</g>
				<g>
					<path style="stroke:#000000;stroke-miterlimit:10;" d="M173.967,286.68c-10.996,1.813-22.082,3.626-33.218,5.238       c-17.746,2.568-35.603,4.633-53.369,5.399c-19.607,0.846-48.872-1.43-56.93-23.277c-8.481-23.025,13.762-42.002,28.752-56.063       c16.518-15.501,35.542-28.263,55.532-38.839c9.004-4.764,18.34-9.831,27.967-14.232l-0.402,26.208       c-6.831,3.314-13.601,6.769-20.251,10.374c-16.74,9.075-32.383,19.842-46.397,32.785c-4.396,4.069-12.887,11.714-17.223,19.289       c-4.014,7-4.457,13.94,5.201,17.888c11.438,4.694,26.458,2.931,38.44,1.632c13.038-1.42,26.056-3.022,39.043-4.825       c9.426-1.309,18.843-2.73,28.229-4.281C184.047,261.54,188.655,284.253,173.967,286.68z"/>
					<g>
						<g>
							<g>
								<g>
									<path style="fill:#FFBB00;stroke:#000000;stroke-miterlimit:10;" d="M175.456,246.63           c-16.326,43.155,25.354,74.473,25.354,74.473l12.426,7.758l-8.615,12.83l-6.384-13.972           c-44.146-1.434-73.922-31.201-63.881-76.155c0.968-4.333,2.314-8.259,3.956-11.817l18.824,8.156L175.456,246.63z"/>
									<path style="fill:none;stroke:#000000;stroke-miterlimit:10;" d="M164.633,247.456           c-13.217,25.138-10.706,47.747,36.848,76.661"/>
									<path style="fill:none;stroke:#000000;stroke-miterlimit:10;" d="M149.819,244.26           c-8.771,26.339-19.394,54.924,49.506,83.661"/>
									<polygon style="stroke:#000000;stroke-miterlimit:10;" points="198.674,327.867 205.058,341.839 213.673,329.009            201.844,321.548          "/>
								</g>
								<path style="fill:#FFEAB0;stroke:#000000;stroke-miterlimit:10;" d="M136.231,243.757c0,0,18.017-70.961,33.317-65.082          c15.3,5.879,5.686,70.474,5.686,70.474l-20.723,6.488L136.231,243.757z"/>
							</g>
							<g>
								<path style="fill:#FFFFFF;stroke:#000000;stroke-miterlimit:10;" d="M118.733,266.21c0,0-7.552-6.769-10.467,2.064          c-2.22,6.728-2.494,21.892-2.499,28.734c-0.002,3.156,1.659,6.176,4.494,7.557c1.834,0.894,6.903,0.212,9.448-1.383          c4.446,3.809,10.178,10.95,22.223,13.178c9.011,1.667,18.882,1.324,27.641-1.462c4.503-1.432,8.652-3.643,11.488-7.523          c1.576-2.156,2.805-4.752,2.953-7.454c0.074-1.346-0.144-2.69-0.704-3.92c-0.163-0.358-1.389-2.83-1.389-2.83          s11.631-14.853-3.554-17.465c0,0,15.523-35.461-40.77-10.499C137.44,265.277,133.711,224.933,118.733,266.21z"/>
								<line style="fill:none;stroke:#000000;stroke-miterlimit:10;" x1="178.081" y1="275.832" x2="167.003" y2="277.618"/>
								<line style="fill:none;stroke:#000000;stroke-miterlimit:10;" x1="181.922" y1="293.171" x2="170.275" y2="294.082"/>
								<line style="fill:none;stroke:#000000;stroke-miterlimit:10;" x1="131.543" y1="267.681" x2="142.399" y2="263.146"/>
								<line style="fill:none;stroke:#000000;stroke-miterlimit:10;" x1="118.923" y1="266.21" x2="118.882" y2="277.887"/>
								<line style="fill:none;stroke:#000000;stroke-miterlimit:10;" x1="119.055" y1="294.92" x2="119.709" y2="303.183"/>
							</g>
							<path style="fill:#FFEAB0;stroke:#000000;stroke-miterlimit:10;" d="M93.399,274.109c0.003-5.378,4.534-12.758,6.153-15.983         c2.3-4.58,5.22-8.978,9.133-12.338c5.79-4.971,13.175-6.641,20.603-5.202c9.308,1.803,18.573,7.996,25.362,14.519         c0.087,0.083,9.525-5.515,10.302-5.816c5.613-2.17,11.688-3.649,17.741-3.283c6.866,0.415,13.032,3.504,17.35,8.894         c2.87,3.583,4.813,7.838,6.206,12.188c1.707,5.332,3.478,10.84,3.115,16.506c-0.308,4.815-2.667,8.958-7.25,4.694         c-3.6-3.349-5.597-8.032-8.188-12.116c-4.489-7.076-9.741-14.233-17.035-18.626c-6.9-4.156-14.853-4.673-22.38-1.91         c0,0-0.804-0.509-0.804-0.509c-20.809-12.472-36.869,7.185-50.21,20.589c-1.914,1.923-5.552,5.238-8.274,2.909         C93.911,277.505,93.398,275.921,93.399,274.109z"/>
						</g>
					</g>
				</g>
			</g>
			<g>
				<g>
					<path style="stroke:#000000;stroke-miterlimit:10;" d="M424.835,389.012c0,0.531-1.402,0.962-3.464,1.293       c-5.857,0.932-17.111,1.063-17.081,0.451c0.1-3.92,0.07-7.859-0.08-11.779c-0.01-0.451-0.03-0.892-0.05-1.343       c-1.181-31.727-9.171-63.344-19.634-92.735c-1.402-3.93-3.044-7.919-4.846-11.919l10.553-33.221       c4.696,11.628,8.66,23.688,12.836,35.396c11.404,32.158,20.044,66.231,21.536,100.765c0.03,0.561,0.05,1.113,0.07,1.674       C424.835,381.434,424.895,385.223,424.835,389.012z"/>
					<g>
						<path style="fill:#FFFFFF;stroke:#000000;stroke-miterlimit:10;" d="M436.886,390.101c0,0,9.112-17.706-22.641-13.595        c0,0-12.314,0.471-18.107,3.572c-5.793,3.101,2.087,12.488,2.087,12.488s-2.852,6.423-21.372,22.614        c-13.547,11.844,2.879,16.22,23.698,10.559c28.818-7.835,45.17,11.796,55.776,18.884c3.131,2.093,7.088,2.382,10.291,0.425        c1.743-1.064,2.889-2.598,1.869-4.755c0,0,11.879-3.643,3.295-15.123c0,0,12.445-5.562-2.158-18.333        C455.02,394.066,436.886,390.101,436.886,390.101z"/>
						<line style="fill:none;stroke:#000000;stroke-miterlimit:10;" x1="436.886" y1="390.101" x2="420.785" y2="390.311"/>
						<line style="fill:none;stroke:#000000;stroke-miterlimit:10;" x1="403.312" y1="392.072" x2="398.224" y2="392.565"/>
						<path style="fill:none;stroke:#000000;stroke-miterlimit:10;" d="M442.451,415.043c0,0,20.316,8.681,26.035,25.251"/>
						<path style="fill:none;stroke:#000000;stroke-miterlimit:10;" d="M448.386,404.756c0,0,19.81,10.04,22.902,19.912"/>
					</g>
				</g>
				<g>
					<path style="stroke:#000000;stroke-miterlimit:10;" d="M344.777,382.867l-6.808,21.442c-0.951,2.997-2.863,5.453-5.316,7.087       c-3.724,0.601-7.499,1.203-11.294,1.794c-64.458,10.074-137.888,19.317-197.53,41.29c-12.045,4.441-20.085-13.864-8.02-18.315       c39.548-14.575,88.788-26.625,136.977-36.459h0.01C285.005,393.142,316.733,387.558,344.777,382.867z"/>
					<g>
						<g>
							<path style="fill:#00C692;stroke:#000000;stroke-miterlimit:10;" d="M110.532,464.53         c-10.518,8.781-18.509,13.098-24.692,14.228c-17.142,3.098-20.672-18.269-26.799-37.63         c-6.261-19.704-12.88-49.577-0.795-61.571c4.053-4.036,10.256-6.054,19.323-4.953c35.942,4.355,19.515,61.366,19.515,61.366         l2.886-1.589c-0.3-0.862-0.274-4.06,0.794-6.524c1.299-2.997,4.684-4.826,7.264-4.647         c6.198,0.431,9.723,12.582,11.609,19.087c1.748,6.024,5.846,20.155,0.495,23.57         C119.07,466.545,116.44,467.564,110.532,464.53z"/>
							<path style="fill:none;stroke:#000000;stroke-miterlimit:10;" d="M110.537,464.541c0,0-3.115-4.267-6.285-14.484"/>
							<path style="fill:none;stroke:#000000;stroke-miterlimit:10;" d="M101.618,439.713c0,0-1.377-2.307-1.61-6.038"/>
							<g>
								<path style="fill:#FFFFFF;" d="M94.046,392.199c-4.234-8.067-11.301-12.866-20.56-12.435          c-1.239,0.008-2.469,0.206-3.747,0.229l-0.024-0.097c1.238-0.214,2.468-0.501,3.715-0.655          c0.688-0.025,2.166-0.149,2.828-0.165c0.917,0.074,1.918,0.128,2.827,0.216c1.096,0.239,2.636,0.511,3.652,0.962          C87.994,382.118,92.511,387.064,94.046,392.199L94.046,392.199z"/>
							</g>
							<path style="fill:#FFFFFF;stroke:#000000;stroke-miterlimit:10;" d="M85.716,478.569c-0.439,0.261-0.932,0.471-1.485,0.624         c-3.908,1.082-8.758-1.676-11.429-4.339c-8.389-8.367-10.335-22.896-13.763-33.726c-6.261-19.703-12.047-50.163-0.796-61.57         c10.324-10.468,19.56,24.972,21.393,32.115c4.395,17.131,8.013,35.011,9.32,52.583         C89.294,468.796,90.398,475.79,85.716,478.569z"/>
						</g>
						<g>
							<line style="fill:none;stroke:#000000;stroke-miterlimit:10;" x1="52.022" y1="399.551" x2="75.837" y2="397.934"/>
							<line style="fill:none;stroke:#000000;stroke-miterlimit:10;" x1="53.125" y1="418.154" x2="80.751" y2="417.03"/>
							<line style="fill:none;stroke:#000000;stroke-miterlimit:10;" x1="58.464" y1="438.826" x2="85.453" y2="436.08"/>
							<line style="fill:none;stroke:#000000;stroke-miterlimit:10;" x1="64.169" y1="459.276" x2="88.122" y2="457.341"/>
						</g>
					</g>
				</g>
			</g>
		</g>
		<g>
			<g>
				<g>
					<g>
						<path style="fill:#FFFFFF;stroke:#000000;stroke-miterlimit:10;" d="M174.28,117.604        c0.776,25.054,21.691,44.734,46.714,43.957c25.023-0.777,44.68-21.716,43.904-46.77c-0.776-25.053-21.69-44.734-46.714-43.957        C193.161,71.61,173.505,92.55,174.28,117.604z"/>
						<path style="stroke:#000000;stroke-miterlimit:10;" d="M237.903,117.472c-2.584,17.539-18.691,29.689-35.976,27.136        c-17.285-2.553-29.203-18.84-26.619-36.38c2.584-17.54,18.691-29.689,35.976-27.136        C228.568,83.645,240.486,99.932,237.903,117.472z"/>
					</g>
					<path style="fill:#FF6C88;stroke:#000000;stroke-miterlimit:10;" d="M264.724,121.628l-91.311-12.598       c0,0,11.466-47.322,56.613-39.234C269.464,76.861,264.724,121.628,264.724,121.628z"/>
					<g>
						<path style="fill:none;stroke:#000000;stroke-miterlimit:10;" d="M182.039,68.703c0,0-3.317,10.496,4.463,16.602"/>
						<path style="fill:none;stroke:#000000;stroke-miterlimit:10;" d="M170.368,78.343c0,0-0.691,12.066,9.494,15.77"/>
						<path style="fill:none;stroke:#000000;stroke-miterlimit:10;" d="M163.368,94.225c0,0,0.017,10.655,10.154,14.569"/>
					</g>
				</g>
				<g>
					<g>
						<ellipse style="fill:#FFFFFF;stroke:#000000;stroke-miterlimit:10;" cx="337.689" cy="131.814" rx="45.33" ry="45.386"/>
						<path style="stroke:#000000;stroke-miterlimit:10;" d="M356.837,132.571c-2.584,17.539-18.691,29.689-35.976,27.136        c-17.285-2.553-29.203-18.84-26.619-36.38c2.584-17.54,18.691-29.689,35.976-27.136        C347.502,98.744,359.42,115.031,356.837,132.571z"/>
					</g>
					<path style="fill:#FF6C88;stroke:#000000;stroke-miterlimit:10;" d="M292.912,123.97l91.198,14.384       c0,0,3.027-49.605-44.822-52.919C300.466,82.745,292.912,123.97,292.912,123.97z"/>
					<g>
						<path style="fill:none;stroke:#000000;stroke-miterlimit:10;" d="M387.335,97.197c0,0,0.149,11.008-9.06,14.604"/>
						<path style="fill:none;stroke:#000000;stroke-miterlimit:10;" d="M395.73,109.799c0,0-2.818,11.752-13.637,12.354"/>
						<path style="fill:none;stroke:#000000;stroke-miterlimit:10;" d="M397.851,127.029c0,0-3.089,10.197-13.923,11.013"/>
					</g>
				</g>
			</g>
			<path style="fill:#FF95A9;stroke:#000000;stroke-miterlimit:10;" d="M274.87,144.833l-2.112,12.953c0,0-20.785-5.298-22.93,5.437     c-2.144,10.733,20.754,10.98,20.754,10.98"/>
			<g>
				<path style="stroke:#000000;stroke-miterlimit:10;" d="M301.095,219.558c-0.052,0.034-0.101,0.048-0.152,0.081      c-16.991,8.095-37.968,7.7-55.945,0.705c-6.407-2.489-13.276-6.142-19.12-10.722c-9.13-7.109-15.728-16.478-14.025-27.2      c1.611-9.928,10.606-11.533,20.575-10.179c12.087,1.652,23.026,7.232,34.911,9.64c12.469,2.526,24.504-1.728,36.893,0.34      c8.531,1.424,18.567,6.933,18.138,15.635C321.87,207.961,310.049,215.273,301.095,219.558z"/>
				<path style="fill:#712CE5;stroke:#000000;stroke-miterlimit:10;" d="M301.095,219.558c-0.052,0.034-0.101,0.048-0.152,0.081      c-16.991,8.095-37.968,7.7-55.945,0.705c-6.407-2.489-13.276-6.142-19.12-10.722c8.727-8.288,23.52-12.709,39.538-10.596      C281.505,201.129,294.73,209.23,301.095,219.558z"/>
			</g>
			<g>
				<path style="fill:#FF4568;stroke:#000000;stroke-miterlimit:10;" d="M200.026,162.704c14.663,1.819,21.59,14.055,18.726,25.96      c-2.864,11.905-13.991,19.432-24.851,16.812"/>
				<path style="fill:#FF4568;stroke:#000000;stroke-miterlimit:10;" d="M335.059,179.586      c-11.939,1.294-21.669,10.063-21.849,22.814c-0.18,12.751,10.39,20.117,17.847,23.191"/>
			</g>
		</g>
	</g>
	<g>
		<path style="fill:#FFBB00;stroke:#000000;stroke-miterlimit:10;" d="M89.395,128.913c-20.17,6.088-22.185,9.039-21.978,32.183    c-6.072-22.331-8.811-24.624-29.874-25.005c20.17-6.088,22.185-9.039,21.978-32.183C65.593,126.239,68.332,128.532,89.395,128.913    z"/>
		<path style="fill:#FFBB00;stroke:#000000;stroke-miterlimit:10;" d="M481.742,187.798c-21.064-0.315-23.877,1.886-30.683,24.005    c0.969-23.124-0.947-26.14-20.905-32.891c21.064,0.315,23.877-1.886,30.682-24.005    C459.867,178.031,461.784,181.047,481.742,187.798z"/>
		<path style="fill:#FFBB00;stroke:#000000;stroke-miterlimit:10;" d="M122.193,37.004c-11.83,3.571-13.012,5.302-12.89,18.876    c-3.562-13.098-5.168-14.442-17.522-14.666c11.83-3.571,13.012-5.302,12.89-18.876C108.232,35.436,109.839,36.781,122.193,37.004z    "/>
		<path style="fill:#FFBB00;stroke:#000000;stroke-miterlimit:10;" d="M476.097,58.677c-12.316-0.996-14.047,0.184-18.88,12.866    c1.456-13.496,0.451-15.335-10.97-20.055c12.316,0.996,14.047-0.184,18.88-12.866C463.67,52.118,464.676,53.957,476.097,58.677z"/>
	</g>
</g>















</svg>
